# xmcd CD database file
#
# Track frame offsets:
#	150
#	17550
#	36607
#	57296
#	68854
#	86543
#	99764
#	118119
#	132440
#	152514
#	166679
#	187607
#	202567
#	220893
#	249528
#
# Disc length: 3426 seconds
#
# Revision: 1
# Processed by: cddbd v1.5.2PL0 Copyright (c) Steve Scherf et al.
# Submitted via: CDex 1.70beta2
#
DISCID=ba0d600f
DTITLE=Michael Bublé - michael bublé - WPCR-11764
DYEAR=2003
DGENRE=Classical
TTITLE0=fever
TTITLE1=moondance
TTITLE2=kissing a fool
TTITLE3=for once in my life
TTITLE4=how can you mend a broken heart
TTITLE5=summer wind
TTITLE6=you'll never find another love like mine
TTITLE7=crazy little thing called love
TTITLE8=put your head on my shoulder
TTITLE9=sway
TTITLE10=the way you look tonight
TTITLE11=come fly with me
TTITLE12=that's all
TTITLE13=can't help falling in love
TTITLE14=interview
EXTD=YEAR: 2003
EXTT0=
EXTT1=
EXTT2=
EXTT3=
EXTT4=
EXTT5=
EXTT6=
EXTT7=
EXTT8=
EXTT9=
EXTT10=
EXTT11=
EXTT12=
EXTT13=
EXTT14=
PLAYORDER=
